{
  "accessors": [
    {
      "bufferView": 2,
      "componentType": 5126,
      "count": 54881,
      "max": [
        2.1247246265411377,
        2.242077350616455,
        1.0704066753387451
      ],
      "min": [
        -1.9860663414001465,
        -0.1570306271314621,
        -1.0637764930725098
      ],
      "type": "VEC3"
    },
    {
      "bufferView": 2,
      "byteOffset": 658572,
      "componentType": 5126,
      "count": 54881,
      "max": [
        1.0,
        0.999964714050293,
        1.0
      ],
      "min": [
        -1.0,
        -0.9999959468841553,
        -1.0
      ],
      "type": "VEC3"
    },
    {
      "bufferView": 1,
      "componentType": 5126,
      "count": 54881,
      "max": [
        1.000000238418579,
        1.0
      ],
      "min": [
        0.0,
        -5.960464477539063e-07
      ],
      "type": "VEC2"
    },
    {
      "bufferView": 0,
      "componentType": 5125,
      "count": 308976,
      "type": "SCALAR"
    },
    {
      "bufferView": 2,
      "byteOffset": 1317144,
      "componentType": 5126,
      "count": 3844,
      "max": [
        0.3538286089897156,
        1.913056492805481,
        0.17471107840538025
      ],
      "min": [
        -0.35793328285217285,
        1.1529983282089233,
        -0.3098313808441162
      ],
      "type": "VEC3"
    },
    {
      "bufferView": 2,
      "byteOffset": 1363272,
      "componentType": 5126,
      "count": 3844,
      "max": [
        0.9883192181587219,
        0.9956295490264893,
        0.9984797835350037
      ],
      "min": [
        -0.9980233311653137,
        -0.9891855120658875,
        -0.999186635017395
      ],
      "type": "VEC3"
    },
    {
      "bufferView": 1,
      "byteOffset": 439048,
      "componentType": 5126,
      "count": 3844,
      "max": [
        1.0,
        1.0
      ],
      "min": [
        0.0,
        0.0
      ],
      "type": "VEC2"
    },
    {
      "bufferView": 0,
      "byteOffset": 1235904,
      "componentType": 5125,
      "count": 21156,
      "type": "SCALAR"
    },
    {
      "bufferView": 2,
      "byteOffset": 1409400,
      "componentType": 5126,
      "count": 57409,
      "max": [
        2.129146099090576,
        2.2459020614624023,
        1.0733962059020996
      ],
      "min": [
        -1.989641785621643,
        -0.15999238193035126,
        -1.0667662620544434
      ],
      "type": "VEC3"
    },
    {
      "bufferView": 2,
      "byteOffset": 2098308,
      "componentType": 5126,
      "count": 57409,
      "max": [
        1.0,
        0.9999874830245972,
        1.0
      ],
      "min": [
        -1.0,
        -0.9999935626983643,
        -1.0
      ],
      "type": "VEC3"
    },
    {
      "bufferView": 1,
      "byteOffset": 469800,
      "componentType": 5126,
      "count": 57409,
      "max": [
        1.000000238418579,
        1.0
      ],
      "min": [
        0.0,
        -5.960464477539063e-07
      ],
      "type": "VEC2"
    },
    {
      "bufferView": 0,
      "byteOffset": 1320528,
      "componentType": 5125,
      "count": 323820,
      "type": "SCALAR"
    },
    {
      "bufferView": 2,
      "byteOffset": 2787216,
      "componentType": 5126,
      "count": 936,
      "max": [
        0.12286758422851563,
        1.7910538911819458,
        0.09840855002403259
      ],
      "min": [
        -0.12275086343288422,
        1.0313316583633423,
        -0.08637934178113937
      ],
      "type": "VEC3"
    },
    {
      "bufferView": 2,
      "byteOffset": 2798448,
      "componentType": 5126,
      "count": 936,
      "max": [
        0.9966185688972473,
        0.9976145625114441,
        0.99882572889328
      ],
      "min": [
        -0.9976959228515625,
        -0.9973452091217041,
        -0.9993581771850586
      ],
      "type": "VEC3"
    },
    {
      "bufferView": 1,
      "byteOffset": 929072,
      "componentType": 5126,
      "count": 936,
      "max": [
        0.37500008940696716,
        1.0
      ],
      "min": [
        0.0,
        0.12498915195465088
      ],
      "type": "VEC2"
    },
    {
      "bufferView": 0,
      "byteOffset": 2615808,
      "componentType": 5125,
      "count": 5304,
      "type": "SCALAR"
    },
    {
      "bufferView": 2,
      "byteOffset": 2809680,
      "componentType": 5126,
      "count": 896,
      "max": [
        0.18893268704414368,
        2.060502052307129,
        0.2424934208393097
      ],
      "min": [
        -0.1587720662355423,
        1.2030541896820068,
        0.0052743470296263695
      ],
      "type": "VEC3"
    },
    {
      "bufferView": 2,
      "byteOffset": 2820432,
      "componentType": 5126,
      "count": 896,
      "max": [
        0.9299208521842957,
        0.9928109049797058,
        0.9997407793998718
      ],
      "min": [
        -0.9988648891448975,
        -0.9952362775802612,
        -0.9997931122779846
      ],
      "type": "VEC3"
    },
    {
      "bufferView": 1,
      "byteOffset": 936560,
      "componentType": 5126,
      "count": 896,
      "max": [
        0.0,
        1.0
      ],
      "min": [
        0.0,
        1.0
      ],
      "type": "VEC2"
    },
    {
      "bufferView": 0,
      "byteOffset": 2637024,
      "componentType": 5125,
      "count": 2880,
      "type": "SCALAR"
    },
    {
      "bufferView": 2,
      "byteOffset": 2831184,
      "componentType": 5126,
      "count": 4096,
      "max": [
        0.09954185038805008,
        1.4475061893463135,
        0.08656340092420578
      ],
      "min": [
        0.0471583791077137,
        1.3996508121490479,
        0.05805811285972595
      ],
      "type": "VEC3"
    },
    {
      "bufferView": 2,
      "byteOffset": 2880336,
      "componentType": 5126,
      "count": 4096,
      "max": [
        0.9955818057060242,
        0.9972301125526428,
        0.9673112034797668
      ],
      "min": [
        -0.9991130232810974,
        -0.9994227886199951,
        -0.9165641665458679
      ],
      "type": "VEC3"
    },
    {
      "bufferView": 1,
      "byteOffset": 943728,
      "componentType": 5126,
      "count": 4096,
      "max": [
        0.0,
        1.0
      ],
      "min": [
        0.0,
        1.0
      ],
      "type": "VEC2"
    },
    {
      "bufferView": 0,
      "byteOffset": 2648544,
      "componentType": 5125,
      "count": 6144,
      "type": "SCALAR"
    },
    {
      "bufferView": 2,
      "byteOffset": 2929488,
      "componentType": 5126,
      "count": 1842,
      "max": [
        0.11409740895032883,
        1.7796133756637573,
        0.06834910809993744
      ],
      "min": [
        -0.10233156383037567,
        1.6909143924713135,
        0.009452500380575657
      ],
      "type": "VEC3"
    },
    {
      "bufferView": 2,
      "byteOffset": 2951592,
      "componentType": 5126,
      "count": 1842,
      "max": [
        0.9993873834609985,
        0.9996665120124817,
        0.9994447231292725
      ],
      "min": [
        -0.9998083114624023,
        -0.9311342835426331,
        -0.3603856563568115
      ],
      "type": "VEC3"
    },
    {
      "bufferView": 1,
      "byteOffset": 976496,
      "componentType": 5126,
      "count": 1842,
      "max": [
        0.0,
        1.0
      ],
      "min": [
        0.0,
        1.0
      ],
      "type": "VEC2"
    },
    {
      "bufferView": 0,
      "byteOffset": 2673120,
      "componentType": 5125,
      "count": 10752,
      "type": "SCALAR"
    }
  ],
  "asset": {
    "extras": {
      "author": "Miilq (https://sketchfab.com/Miilq)",
      "license": "SKETCHFAB Standard (https://sketchfab.com/licenses)",
      "source": "https://sketchfab.com/3d-models/soren-fully-rigged-1416419255694fb48b13114393bffe66",
      "title": "Soren [Fully Rigged]"
    },
    "generator": "Sketchfab-16.51.0",
    "version": "2.0"
  },
  "bufferViews": [
    {
      "buffer": 0,
      "byteLength": 2716128,
      "name": "floatBufferViews",
      "target": 34963
    },
    {
      "buffer": 0,
      "byteLength": 991232,
      "byteOffset": 2716128,
      "byteStride": 8,
      "name": "floatBufferViews",
      "target": 34962
    },
    {
      "buffer": 0,
      "byteLength": 2973696,
      "byteOffset": 3707360,
      "byteStride": 12,
      "name": "floatBufferViews",
      "target": 34962
    }
  ],
  "buffers": [
    {
      "byteLength": 6681056,
      "uri": "scene.bin"
    }
  ],
  "extensionsUsed": [
    "KHR_materials_unlit"
  ],
  "materials": [
    {
      "doubleSided": true,
      "extensions": {
        "KHR_materials_unlit": {}
      },
      "name": "Color_White",
      "pbrMetallicRoughness": {
        "metallicFactor": 0.0
      }
    },
    {
      "doubleSided": true,
      "extensions": {
        "KHR_materials_unlit": {}
      },
      "name": "Color_Light_Grey",
      "pbrMetallicRoughness": {
        "baseColorFactor": [
          0.592257,
          0.592257,
          0.592257,
          1.0
        ],
        "metallicFactor": 0.0
      }
    },
    {
      "extensions": {
        "KHR_materials_unlit": {}
      },
      "name": "Outline",
      "pbrMetallicRoughness": {
        "baseColorFactor": [
          0.0,
          0.0,
          0.0,
          1.0
        ],
        "metallicFactor": 0.0
      }
    },
    {
      "doubleSided": true,
      "extensions": {
        "KHR_materials_unlit": {}
      },
      "name": "Color_Grey",
      "pbrMetallicRoughness": {
        "baseColorFactor": [
          0.36131,
          0.36131,
          0.36131,
          1.0
        ],
        "metallicFactor": 0.0
      }
    },
    {
      "doubleSided": true,
      "extensions": {
        "KHR_materials_unlit": {}
      },
      "name": "Outline_noBC",
      "pbrMetallicRoughness": {
        "baseColorFactor": [
          0.0,
          0.0,
          0.0,
          1.0
        ],
        "metallicFactor": 0.0
      }
    },
    {
      "extensions": {
        "KHR_materials_unlit": {}
      },
      "name": "Outline_Fresnel",
      "pbrMetallicRoughness": {
        "metallicFactor": 0.0
      }
    },
    {
      "doubleSided": true,
      "extensions": {
        "KHR_materials_unlit": {}
      },
      "name": "Material.005",
      "pbrMetallicRoughness": {
        "metallicFactor": 0.0
      }
    }
  ],
  "meshes": [
    {
      "name": "Object_0",
      "primitives": [
        {
          "attributes": {
            "NORMAL": 1,
            "POSITION": 0,
            "TEXCOORD_0": 2
          },
          "indices": 3,
          "material": 0,
          "mode": 4
        }
      ]
    },
    {
      "name": "Object_1",
      "primitives": [
        {
          "attributes": {
            "NORMAL": 5,
            "POSITION": 4,
            "TEXCOORD_0": 6
          },
          "indices": 7,
          "material": 1,
          "mode": 4
        }
      ]
    },
    {
      "name": "Object_2",
      "primitives": [
        {
          "attributes": {
            "NORMAL": 9,
            "POSITION": 8,
            "TEXCOORD_0": 10
          },
          "indices": 11,
          "material": 2,
          "mode": 4
        }
      ]
    },
    {
      "name": "Object_3",
      "primitives": [
        {
          "attributes": {
            "NORMAL": 13,
            "POSITION": 12,
            "TEXCOORD_0": 14
          },
          "indices": 15,
          "material": 3,
          "mode": 4
        }
      ]
    },
    {
      "name": "Object_4",
      "primitives": [
        {
          "attributes": {
            "NORMAL": 17,
            "POSITION": 16,
            "TEXCOORD_0": 18
          },
          "indices": 19,
          "material": 4,
          "mode": 4
        }
      ]
    },
    {
      "name": "Object_5",
      "primitives": [
        {
          "attributes": {
            "NORMAL": 21,
            "POSITION": 20,
            "TEXCOORD_0": 22
          },
          "indices": 23,
          "material": 5,
          "mode": 4
        }
      ]
    },
    {
      "name": "Object_6",
      "primitives": [
        {
          "attributes": {
            "NORMAL": 25,
            "POSITION": 24,
            "TEXCOORD_0": 26
          },
          "indices": 27,
          "material": 6,
          "mode": 4
        }
      ]
    }
  ],
  "nodes": [
    {
      "children": [
        1
      ],
      "matrix": [
        1.0,
        0.0,
        0.0,
        0.0,
        0.0,
        2.220446049250313e-16,
        -1.0,
        0.0,
        0.0,
        1.0,
        2.220446049250313e-16,
        0.0,
        0.0,
        0.0,
        0.0,
        1.0
      ],
      "name": "Sketchfab_model"
    },
    {
      "children": [
        2
      ],
      "name": "root"
    },
    {
      "children": [
        3
      ],
      "matrix": [
        1.0,
        0.0,
        0.0,
        0.0,
        0.0,
        2.220446049250313e-16,
        1.0,
        0.0,
        0.0,
        -1.0,
        2.220446049250313e-16,
        0.0,
        0.0,
        0.0,
        0.0,
        1.0
      ],
      "name": "GLTF_SceneRootNode"
    },
    {
      "children": [
        4,
        5,
        6,
        7,
        8,
        9,
        10
      ],
      "name": "Cape.001_0"
    },
    {
      "mesh": 0,
      "name": "Object_4"
    },
    {
      "mesh": 1,
      "name": "Object_5"
    },
    {
      "mesh": 2,
      "name": "Object_6"
    },
    {
      "mesh": 3,
      "name": "Object_7"
    },
    {
      "mesh": 4,
      "name": "Object_8"
    },
    {
      "mesh": 5,
      "name": "Object_9"
    },
    {
      "mesh": 6,
      "name": "Object_10"
    }
  ],
  "scene": 0,
  "scenes": [
    {
      "name": "Sketchfab_Scene",
      "nodes": [
        0
      ]
    }
  ]
}
